<svg width="401" height="58" viewBox="0 0 401 58" fill="none" xmlns="http://www.w3.org/2000/svg">
<path d="M20 2.07008C20.9175 2.47744 21.7921 2.78295 22.6236 2.98663C23.4551 3.19031 24.1863 3.34307 24.8171 3.44491C25.5626 3.59767 26.2508 3.64859 26.8816 3.59767C27.6844 3.59767 28.688 3.47037 29.8923 3.21577C31.1252 2.96117 32.3869 2.73203 33.6772 2.52836C34.9675 2.27376 36.2004 2.121 37.376 2.07008C38.5803 1.96824 39.5552 2.09554 40.3007 2.45198C41.0462 2.75749 41.806 3.24123 42.5802 3.90319C43.3831 4.51422 44.1142 5.30347 44.7737 6.27095C45.4332 7.1875 45.978 8.28227 46.4081 9.55526C46.8382 10.7773 47.0819 12.1776 47.1393 13.7561C47.1106 15.742 46.8525 17.6006 46.3651 19.3318C45.9637 20.8085 45.2898 22.3361 44.3436 23.9146C43.3974 25.4422 42.0354 26.6133 40.2577 27.428C41.1466 27.6317 41.9064 27.9882 42.5372 28.4974C43.1967 28.9556 43.7558 29.5158 44.2146 30.1777C44.702 30.7887 45.0891 31.4762 45.3759 32.24C45.6913 33.0037 45.935 33.7675 46.107 34.5313C46.5371 36.3135 46.7378 38.2994 46.7092 40.4889C46.5371 43.3404 46.2074 45.6064 45.7199 47.2867C45.2612 48.967 44.7307 50.2655 44.1286 51.1821C43.5264 52.0986 42.91 52.7351 42.2791 53.0915C41.6483 53.448 41.0749 53.728 40.5588 53.9317C40.0426 54.1354 39.4118 54.2372 38.6663 54.2372C37.9208 54.2372 37.118 54.2118 36.2578 54.1609C35.4262 54.059 34.566 53.9826 33.6772 53.9317C32.7883 53.8299 31.9424 53.8299 31.1396 53.9317C30.4801 54.0336 29.6772 54.1354 28.731 54.2372C27.9282 54.3391 26.9246 54.4664 25.7203 54.6191C24.516 54.721 23.1111 54.8483 21.5053 55.001C21.8208 54.5937 22.0788 54.1354 22.2795 53.6262C22.5089 53.0661 22.6953 52.5823 22.8387 52.175C22.982 51.6658 23.1111 51.1821 23.2257 50.7238C23.3118 50.3164 23.3834 49.1962 23.4408 47.3631C23.4981 45.53 23.5412 43.3404 23.5698 40.7944C23.5985 38.1975 23.6128 35.4224 23.6128 32.4691C23.6415 29.4648 23.6272 26.5879 23.5698 23.8382C23.5412 21.0376 23.4838 18.568 23.3978 16.4294C23.3404 14.2399 23.2544 12.6614 23.1397 11.6939C22.9677 10.6246 22.7383 9.5298 22.4516 8.40957C22.2222 7.4421 21.8924 6.39825 21.4623 5.27802C21.0609 4.15778 20.5735 3.08847 20 2.07008ZM29.0751 9.86078C29.0751 10.0645 29.0894 10.7519 29.1181 11.923C29.1468 12.9414 29.1755 14.5199 29.2041 16.6585C29.2615 18.7463 29.3332 21.7251 29.4192 25.5949C30.136 26.1551 30.8385 26.4606 31.5267 26.5115C32.2148 26.5115 32.8313 26.4606 33.3761 26.3587C34.0069 26.206 34.609 25.9514 35.1825 25.5949C35.9567 25.0348 36.5588 24.1183 36.9889 22.8453C37.4477 21.5723 37.7488 20.2484 37.8921 18.8736C38.0642 17.4478 38.1072 16.1239 38.0212 14.9018C37.9351 13.6288 37.7488 12.7123 37.462 12.1522C36.9172 11.2865 36.2434 10.5737 35.4406 10.0135C34.7524 9.55526 33.8779 9.24975 32.817 9.09699C31.7847 8.89331 30.5374 9.14791 29.0751 9.86078ZM28.86 46.0646C29.921 47.0321 30.8528 47.6686 31.6557 47.9741C32.4585 48.2796 33.1324 48.4324 33.6772 48.4324C34.308 48.4324 34.8528 48.2796 35.3115 47.9741C35.8563 47.5158 36.3868 46.9048 36.9029 46.141C37.4477 45.3263 37.8491 44.3843 38.1072 43.315C38.3939 42.1947 38.5086 40.9727 38.4513 39.6488C38.3939 38.2739 38.0642 36.7718 37.462 35.1424C36.9172 33.9712 36.2578 33.0547 35.4836 32.3927C34.7954 31.8326 33.9209 31.4762 32.86 31.3234C31.8277 31.1706 30.5518 31.6035 29.0321 32.6219L28.86 46.0646Z" fill="url(#paint0_linear_81_94)"/>
<path d="M63.3983 0.0138872C64.9466 0.115726 66.5093 0.624923 68.0863 1.54148C69.692 2.40711 71.1687 3.83286 72.5164 5.81872C73.864 7.75367 75.0109 10.2742 75.9572 13.3803C76.9034 16.4355 77.4912 20.1781 77.7206 24.6081C77.9213 28.2234 77.6632 31.8132 76.9464 35.3776C76.2582 38.891 75.2977 42.1244 74.0647 45.0778C72.8318 48.0311 71.4124 50.5516 69.8067 52.6393C68.201 54.6761 66.5953 56.0255 64.9896 56.6874C64.0147 57.0948 62.9395 57.1457 61.7639 56.8402C60.6169 56.4837 59.4413 55.8473 58.2371 54.9307C57.0615 53.9632 55.9002 52.7412 54.7533 51.2645C53.635 49.7878 52.6171 48.1075 51.6995 46.2234C50.782 44.2885 50.0078 42.2008 49.377 39.9603C48.7749 37.7199 48.4021 35.3776 48.2588 32.9334C48.1154 30.8966 48.1011 28.6562 48.2157 26.212C48.3591 23.717 48.6315 21.2474 49.0329 18.8032C49.463 16.3082 50.0508 13.9149 50.7963 11.6236C51.5705 9.28126 52.5454 7.24447 53.721 5.51321C54.8966 3.73102 56.2729 2.35619 57.85 1.38872C59.4557 0.370325 61.3051 -0.0879521 63.3983 0.0138872ZM55.6995 30.9476C55.298 36.396 55.5848 40.775 56.5597 44.0848C57.5632 47.3946 59.0686 49.4059 61.0757 50.1188C62.0506 50.4752 62.9825 50.1188 63.8714 49.0495C64.7889 47.9292 65.6204 46.3253 66.3659 44.2376C67.1114 42.1499 67.7566 39.7057 68.3014 36.9052C68.8462 34.1046 69.2476 31.1767 69.5057 28.1215C69.7637 25.0663 69.7781 22.3167 69.5487 19.8725C69.348 17.3775 68.9895 15.2643 68.4734 13.533C67.9573 11.7509 67.3265 10.376 66.581 9.40856C65.8642 8.44108 65.1186 7.90643 64.3445 7.80459C62.9968 7.65183 61.8212 8.28833 60.8177 9.71408C59.8141 11.0889 58.9682 12.8966 58.2801 15.137C57.5919 17.3775 57.0328 19.898 56.6027 22.6986C56.2013 25.4992 55.9002 28.2488 55.6995 30.9476Z" fill="url(#paint1_linear_81_94)"/>
<path d="M94.0453 0.0138872C95.5937 0.115726 97.1564 0.624923 98.7334 1.54148C100.339 2.40711 101.816 3.83286 103.163 5.81872C104.511 7.75367 105.658 10.2742 106.604 13.3803C107.55 16.4355 108.138 20.1781 108.368 24.6081C108.568 28.2234 108.31 31.8132 107.593 35.3776C106.905 38.891 105.945 42.1244 104.712 45.0778C103.479 48.0311 102.06 50.5516 100.454 52.6393C98.8481 54.6761 97.2424 56.0255 95.6367 56.6874C94.6618 57.0948 93.5866 57.1457 92.411 56.8402C91.264 56.4837 90.0884 55.8473 88.8842 54.9307C87.7085 53.9632 86.5473 52.7412 85.4003 51.2645C84.2821 49.7878 83.2642 48.1075 82.3466 46.2234C81.4291 44.2885 80.6549 42.2008 80.0241 39.9603C79.422 37.7199 79.0492 35.3776 78.9058 32.9334C78.7625 30.8966 78.7481 28.6562 78.8628 26.212C79.0062 23.717 79.2786 21.2474 79.68 18.8032C80.1101 16.3082 80.6979 13.9149 81.4434 11.6236C82.2176 9.28126 83.1925 7.24447 84.3681 5.51321C85.5437 3.73102 86.92 2.35619 88.4971 1.38872C90.1028 0.370325 91.9522 -0.0879521 94.0453 0.0138872ZM86.3466 30.9476C85.9451 36.396 86.2319 40.775 87.2068 44.0848C88.2103 47.3946 89.7157 49.4059 91.7228 50.1188C92.6977 50.4752 93.6296 50.1188 94.5185 49.0495C95.436 47.9292 96.2675 46.3253 97.013 44.2376C97.7585 42.1499 98.4037 39.7057 98.9485 36.9052C99.4933 34.1046 99.8947 31.1767 100.153 28.1215C100.411 25.0663 100.425 22.3167 100.196 19.8725C99.9951 17.3775 99.6366 15.2643 99.1205 13.533C98.6044 11.7509 97.9736 10.376 97.2281 9.40856C96.5112 8.44108 95.7657 7.90643 94.9916 7.80459C93.6439 7.65183 92.4683 8.28833 91.4647 9.71408C90.4612 11.0889 89.6153 12.8966 88.9272 15.137C88.239 17.3775 87.6799 19.898 87.2498 22.6986C86.8483 25.4992 86.5473 28.2488 86.3466 30.9476Z" fill="url(#paint2_linear_81_94)"/>
<path d="M110.423 1.02148C111.398 1.27608 112.258 1.4543 113.003 1.55614C113.778 1.65798 114.423 1.75982 114.939 1.86166C115.541 1.9635 116.057 2.01442 116.487 2.01442H118.165C119.283 2.01442 121.132 1.93804 123.713 1.78528C123.082 2.14172 122.552 2.65091 122.122 3.31287C121.72 3.97482 121.39 4.66224 121.132 5.37511C120.817 6.18983 120.588 7.03 120.444 7.89563C120.272 8.96495 120.114 10.3907 119.971 12.1729C119.828 13.7514 119.684 15.8136 119.541 18.3596C119.426 20.9056 119.312 24.0881 119.197 27.907C120.43 25.412 121.505 23.197 122.423 21.262C123.369 19.3271 124.186 17.6213 124.874 16.1446C125.562 14.6679 126.136 13.395 126.595 12.3256C127.082 11.2563 127.483 10.3398 127.799 9.57598C128.544 7.84471 128.974 6.67356 129.089 6.06253C129.118 5.70609 129.103 5.27327 129.046 4.76408C128.989 4.35672 128.903 3.87298 128.788 3.31287C128.673 2.70183 128.501 2.03988 128.272 1.327C129.419 1.42884 130.394 1.50522 131.197 1.55614C132.028 1.60706 132.716 1.65798 133.261 1.7089C133.892 1.75982 134.408 1.78528 134.809 1.78528H136.616C137.275 1.78528 138.136 1.78528 139.196 1.78528C140.257 1.73436 141.591 1.68344 143.196 1.63252C142.135 2.0908 141.132 2.70183 140.186 3.46563C139.239 4.22942 138.394 4.96776 137.648 5.68063C136.788 6.54626 135.985 7.43736 135.24 8.35391C134.494 9.3723 133.663 10.5689 132.745 11.9437C131.971 13.1149 131.068 14.5661 130.035 16.2974C129.003 17.9777 127.885 19.9381 126.681 22.1786C127.971 26.6595 129.089 30.3512 130.035 33.2536C131.01 36.1051 131.827 38.3965 132.487 40.1278C133.232 42.1645 133.863 43.7176 134.379 44.7869C134.895 45.7544 135.498 46.7473 136.186 47.7657C136.759 48.6313 137.476 49.5988 138.336 50.6681C139.196 51.6865 140.186 52.6794 141.304 53.6469L129.046 54.7162C129.218 54.3089 129.319 53.8251 129.347 53.265C129.405 52.654 129.433 52.0939 129.433 51.5847C129.433 51.0246 129.405 50.4135 129.347 49.7516C129.233 48.9368 128.931 47.6129 128.444 45.7798C128.043 44.2013 127.426 41.9863 126.595 39.1348C125.763 36.2324 124.616 32.4134 123.154 27.6779L119.498 34.4757C119.355 36.1051 119.283 37.5818 119.283 38.9057C119.283 40.2296 119.312 41.3244 119.369 42.19C119.455 43.2593 119.57 44.1759 119.713 44.9397C119.885 45.7035 120.129 46.5691 120.444 47.5366C120.702 48.4022 121.046 49.4206 121.476 50.5917C121.906 51.7629 122.451 53.0613 123.111 54.4871C122.451 54.1816 121.792 53.9779 121.132 53.8761C120.473 53.7233 119.871 53.6215 119.326 53.5705C118.695 53.5196 118.093 53.5451 117.519 53.6469C116.917 53.7488 116.215 53.9015 115.412 54.1052C114.724 54.3089 113.878 54.5635 112.874 54.869C111.871 55.1745 110.724 55.5564 109.434 56.0147C110.064 55.3527 110.566 54.6398 110.939 53.8761C111.312 53.1123 111.613 52.3739 111.842 51.661C112.1 50.8463 112.272 50.0571 112.358 49.2933C112.416 48.6313 112.459 47.2056 112.487 45.016C112.545 42.8265 112.573 40.2805 112.573 37.3781C112.602 34.4248 112.602 31.3187 112.573 28.0598C112.545 24.8009 112.516 21.7458 112.487 18.8943C112.459 16.0428 112.416 13.6241 112.358 11.6382C112.33 9.60144 112.301 8.35391 112.272 7.89563C112.186 7.18276 112.072 6.41896 111.928 5.60425C111.785 4.89138 111.584 4.15304 111.326 3.38925C111.097 2.57453 110.796 1.78528 110.423 1.02148Z" fill="url(#paint3_linear_81_94)"/>
<path d="M144.196 4.45858C144.741 5.17146 145.286 5.70611 145.831 6.06255C146.404 6.36807 146.92 6.57175 147.379 6.67359C147.895 6.82634 148.411 6.85181 148.927 6.74997C149.415 6.64813 149.917 6.34261 150.433 5.83341C150.949 5.32422 151.551 4.78956 152.239 4.22944C152.927 3.66933 153.73 3.18559 154.648 2.77824C155.594 2.31996 156.727 2.09082 158.045 2.09082C158.619 2.09082 159.221 2.2945 159.852 2.70186C160.511 3.10921 161.142 3.64387 161.744 4.30582C162.346 4.91686 162.891 5.60427 163.379 6.36807C163.895 7.13186 164.282 7.89566 164.54 8.65945C164.827 9.42325 165.027 10.6708 165.142 12.402C165.257 14.0824 165.3 15.9155 165.271 17.9014C165.242 19.8872 165.142 21.8476 164.97 23.7826C164.827 25.7175 164.612 27.296 164.325 28.5181C163.981 29.5874 163.321 30.9622 162.346 32.6426C161.515 34.0683 160.268 35.9015 158.605 38.1419C156.942 40.3824 154.705 43.0557 151.895 46.1618C153.558 46.1108 154.949 46.0345 156.067 45.9326C157.214 45.7799 158.146 45.6271 158.863 45.4743C159.694 45.2707 160.354 45.067 160.841 44.8633C161.271 44.5578 161.73 44.125 162.217 43.5649C162.619 43.0557 163.049 42.3937 163.508 41.579C163.995 40.7643 164.468 39.695 164.927 38.3711C165.013 41.1207 165.099 43.2848 165.185 44.8633C165.242 45.7799 165.285 46.5691 165.314 47.2311C165.343 47.8421 165.372 48.555 165.4 49.3697C165.429 50.0826 165.443 50.8973 165.443 51.8138C165.472 52.7304 165.515 53.6979 165.572 54.7163C164.139 54.0543 162.834 53.5451 161.658 53.1887C160.483 52.7813 159.479 52.5012 158.648 52.3485C157.673 52.1448 156.798 52.043 156.024 52.043C155.221 52.0939 154.332 52.2212 153.357 52.4249C152.497 52.6285 151.465 52.9341 150.261 53.3414C149.085 53.6979 147.752 54.2325 146.261 54.9454C146.146 54.3853 146.046 53.8252 145.96 53.265C145.874 52.654 145.802 52.0684 145.745 51.5083C145.659 50.8973 145.587 50.2862 145.53 49.6752C145.472 49.0642 145.415 48.4786 145.358 47.9185C145.3 47.4093 145.257 46.8746 145.229 46.3145C145.2 45.7544 145.171 45.2197 145.143 44.7105C147.436 42.1136 149.3 39.7713 150.734 37.6836C152.167 35.545 153.3 33.7374 154.132 32.2607C155.078 30.5294 155.795 28.9509 156.282 27.5252C156.77 25.7939 157.171 23.8844 157.486 21.7967C157.802 19.709 157.902 17.7741 157.787 15.9919C157.701 14.2097 157.357 12.7585 156.755 11.6382C156.153 10.4671 155.192 9.9579 153.874 10.1107C153.013 10.2125 152.196 10.7472 151.422 11.7146C150.676 12.6821 149.988 13.8533 149.357 15.2281C148.727 16.6029 148.168 18.0796 147.68 19.6581C147.193 21.1857 146.777 22.6369 146.433 24.0117C146.117 25.3865 145.859 26.5322 145.659 27.4488C145.487 28.3653 145.401 28.8491 145.401 28.9C145.372 29.0018 145.329 28.6199 145.272 27.7543C145.243 26.8887 145.2 25.8194 145.143 24.5464C145.114 23.2225 145.071 21.8476 145.013 20.4219C144.956 18.9961 144.899 17.7995 144.841 16.8321C144.813 16.0683 144.77 15.0753 144.712 13.8533C144.626 11.8674 144.454 8.73583 144.196 4.45858Z" fill="url(#paint4_linear_81_94)"/>
<path d="M168.25 1.49707C169.626 1.95535 170.83 2.28632 171.862 2.49C172.895 2.69368 173.769 2.84644 174.486 2.94828C175.318 3.05012 176.034 3.07558 176.637 3.02466C177.239 3.02466 177.999 2.94828 178.916 2.79552C179.69 2.69368 180.665 2.56638 181.841 2.41362C183.045 2.20994 184.464 1.98081 186.099 1.72621C186.013 3.10104 185.927 4.34857 185.841 5.4688C185.783 6.53811 185.726 7.45467 185.669 8.21846C185.611 9.13501 185.568 9.94973 185.54 10.6626C185.511 11.4264 185.468 12.292 185.411 13.2595C185.353 14.1251 185.296 15.1944 185.239 16.4674C185.21 17.7404 185.181 19.2171 185.153 20.8974C184.063 17.6895 183.074 15.2199 182.185 13.4886C181.296 11.7065 180.522 10.3825 179.862 9.51691C179.117 8.54944 178.443 7.96386 177.841 7.76018H176.077C175.561 7.76018 175.002 7.78564 174.4 7.83656C173.798 7.88748 173.253 7.98932 172.766 8.14208L172.938 26.1676C173.511 24.8946 174.142 23.9526 174.83 23.3416C175.518 22.7306 176.192 22.2977 176.852 22.0431C177.597 21.7885 178.357 21.6867 179.131 21.7376C181.138 22.0431 182.687 22.6542 183.776 23.5707C184.895 24.4873 185.697 25.8366 186.185 27.6188C186.414 28.5354 186.601 29.9357 186.744 31.8197C186.916 33.6528 186.973 35.6387 186.916 37.7773C186.859 39.9159 186.672 42.0291 186.357 44.1168C186.041 46.1536 185.54 47.8085 184.851 49.0815C184.163 50.3035 183.49 51.3219 182.83 52.1366C182.171 52.9004 181.511 53.5369 180.852 54.0461C180.192 54.5044 179.504 54.8354 178.787 55.039C178.07 55.2427 177.31 55.3955 176.508 55.4973C175.217 55.6501 173.984 55.3955 172.809 54.7335C171.633 54.0716 170.601 53.1805 169.712 52.0603C168.823 50.94 168.106 49.7434 167.561 48.4704C167.017 47.1465 166.716 45.9499 166.658 44.8806C166.601 44.0659 166.572 43.2512 166.572 42.4364C166.572 41.7236 166.587 40.9852 166.615 40.2214C166.673 39.4576 166.773 38.7957 166.916 38.2356L178.056 39.6104C176.966 40.2214 176.149 40.8834 175.604 41.5963C175.06 42.2582 174.672 42.8947 174.443 43.5058C174.156 44.2186 174.042 44.9315 174.099 45.6444C174.3 47.4775 174.658 48.9796 175.174 50.1508C175.69 51.271 176.278 51.7293 176.938 51.5256C177.282 51.4238 177.669 51.0164 178.099 50.3035C178.558 49.5397 178.988 48.5977 179.389 47.4775C179.819 46.3573 180.192 45.1097 180.507 43.7349C180.852 42.3091 181.067 40.8834 181.153 39.4576C181.239 38.0319 181.296 36.5298 181.325 34.9513C181.382 33.3728 181.353 31.9215 181.239 30.5976C181.124 29.2737 180.923 28.179 180.637 27.3133C180.35 26.3968 179.934 25.9385 179.389 25.9385C178.93 26.0403 178.414 26.3713 177.841 26.9314C177.353 27.4406 176.766 28.2044 176.077 29.2228C175.418 30.2412 174.672 31.7179 173.841 33.6528C173.267 33.3982 172.78 33.1436 172.379 32.889C172.006 32.5835 171.69 32.3289 171.432 32.1252C171.117 31.9215 170.873 31.6924 170.701 31.4378C170.529 31.2341 170.3 30.9795 170.013 30.674C169.784 30.4194 169.497 30.1139 169.153 29.7575C168.809 29.3501 168.393 28.8664 167.906 28.3062C168.02 26.3204 168.092 24.64 168.121 23.2652C168.149 21.8904 168.178 20.7701 168.207 19.9045V17.384C168.178 16.6711 168.164 15.6273 168.164 14.2524C168.164 13.0813 168.164 11.4773 168.164 9.44053C168.164 7.35283 168.192 4.70501 168.25 1.49707Z" fill="url(#paint5_linear_81_94)"/>
<path d="M199.937 0.429102C201.256 0.378182 202.59 0.912839 203.937 2.03307C205.285 3.1533 206.503 4.85911 207.593 7.15049C208.683 9.39096 209.571 12.217 210.26 15.6286C210.948 19.0402 211.306 23.0374 211.335 27.6202C211.364 30.6754 211.235 33.4505 210.948 35.9455C210.661 38.4406 210.274 40.6811 209.787 42.6669C209.299 44.6019 208.74 46.3331 208.109 47.8607C207.507 49.3374 206.891 50.6104 206.26 51.6797C205.629 52.6981 205.027 53.5128 204.453 54.1238C203.88 54.7349 203.392 55.1422 202.991 55.3459C202.475 55.6514 201.858 55.9315 201.142 56.1861C200.425 56.3898 199.679 56.5171 198.905 56.568C198.131 56.6698 197.357 56.5934 196.582 56.3388C195.837 56.1352 195.178 55.7278 194.604 55.1168C194.031 54.5057 193.357 53.6401 192.583 52.5199C191.837 51.3487 191.12 49.7702 190.432 47.7844C189.744 45.7476 189.156 43.2016 188.669 40.1464C188.181 37.0912 187.938 33.3486 187.938 28.9186C187.938 24.4886 188.224 20.5169 188.798 17.0034C189.4 13.49 190.217 10.5112 191.249 8.06705C192.31 5.6229 193.572 3.76434 195.034 2.49135C196.525 1.16744 198.16 0.480022 199.937 0.429102ZM193.873 28.8423C193.844 31.8465 193.945 34.4689 194.174 36.7093C194.403 38.9498 194.676 40.8338 194.991 42.3614C195.307 43.889 195.622 45.1111 195.937 46.0276C196.281 46.8933 196.539 47.5043 196.712 47.8607C196.884 48.319 197.199 48.6245 197.658 48.7773C198.117 48.93 198.604 49.0064 199.12 49.0064C199.636 48.9555 200.138 48.8282 200.625 48.6245C201.113 48.3699 201.486 48.039 201.744 47.6316C201.887 47.377 202.088 46.7405 202.346 45.7221C202.633 44.7037 202.905 43.3798 203.163 41.7504C203.45 40.1209 203.708 38.2369 203.937 36.0983C204.167 33.9088 204.324 31.5665 204.41 29.0714C204.496 26.2708 204.496 23.6994 204.41 21.3571C204.324 18.9638 204.195 16.8761 204.023 15.094C203.851 13.3118 203.65 11.8351 203.421 10.6639C203.192 9.49279 202.948 8.70354 202.69 8.29618C202.317 7.68515 201.858 7.25233 201.314 6.99773C200.797 6.74313 200.267 6.6413 199.722 6.69222C199.206 6.74313 198.704 6.92135 198.217 7.22687C197.758 7.53239 197.4 7.93975 197.142 8.44894C196.626 9.46733 196.167 10.5366 195.765 11.6569C195.364 12.7771 195.034 14.1265 194.776 15.705C194.518 17.2835 194.303 19.1421 194.131 21.2807C193.988 23.3684 193.902 25.8889 193.873 28.8423Z" fill="url(#paint6_linear_81_94)"/>
<path d="M224.339 0.429102C225.657 0.378182 226.991 0.912839 228.338 2.03307C229.686 3.1533 230.905 4.85911 231.994 7.15049C233.084 9.39096 233.973 12.217 234.661 15.6286C235.349 19.0402 235.707 23.0374 235.736 27.6202C235.765 30.6754 235.636 33.4505 235.349 35.9455C235.062 38.4406 234.675 40.6811 234.188 42.6669C233.7 44.6019 233.141 46.3331 232.51 47.8607C231.908 49.3374 231.292 50.6104 230.661 51.6797C230.03 52.6981 229.428 53.5128 228.855 54.1238C228.281 54.7349 227.794 55.1422 227.392 55.3459C226.876 55.6514 226.26 55.9315 225.543 56.1861C224.826 56.3898 224.08 56.5171 223.306 56.568C222.532 56.6698 221.758 56.5934 220.984 56.3388C220.238 56.1352 219.579 55.7278 219.005 55.1168C218.432 54.5057 217.758 53.6401 216.984 52.5199C216.238 51.3487 215.521 49.7702 214.833 47.7844C214.145 45.7476 213.557 43.2016 213.07 40.1464C212.582 37.0912 212.339 33.3486 212.339 28.9186C212.339 24.4886 212.625 20.5169 213.199 17.0034C213.801 13.49 214.618 10.5112 215.651 8.06705C216.711 5.6229 217.973 3.76434 219.435 2.49135C220.926 1.16744 222.561 0.480022 224.339 0.429102ZM218.274 28.8423C218.245 31.8465 218.346 34.4689 218.575 36.7093C218.805 38.9498 219.077 40.8338 219.392 42.3614C219.708 43.889 220.023 45.1111 220.339 46.0276C220.683 46.8933 220.941 47.5043 221.113 47.8607C221.285 48.319 221.6 48.6245 222.059 48.7773C222.518 48.93 223.005 49.0064 223.521 49.0064C224.037 48.9555 224.539 48.8282 225.027 48.6245C225.514 48.3699 225.887 48.039 226.145 47.6316C226.288 47.377 226.489 46.7405 226.747 45.7221C227.034 44.7037 227.306 43.3798 227.564 41.7504C227.851 40.1209 228.109 38.2369 228.338 36.0983C228.568 33.9088 228.726 31.5665 228.812 29.0714C228.898 26.2708 228.898 23.6994 228.812 21.3571C228.726 18.9638 228.597 16.8761 228.424 15.094C228.252 13.3118 228.052 11.8351 227.822 10.6639C227.593 9.49279 227.349 8.70354 227.091 8.29618C226.718 7.68515 226.26 7.25233 225.715 6.99773C225.199 6.74313 224.668 6.6413 224.123 6.69222C223.607 6.74313 223.106 6.92135 222.618 7.22687C222.159 7.53239 221.801 7.93975 221.543 8.44894C221.027 9.46733 220.568 10.5366 220.167 11.6569C219.765 12.7771 219.435 14.1265 219.177 15.705C218.919 17.2835 218.704 19.1421 218.532 21.2807C218.389 23.3684 218.303 25.8889 218.274 28.8423Z" fill="url(#paint7_linear_81_94)"/>
<defs>
<linearGradient id="paint0_linear_81_94" x1="128.916" y1="-18.2723" x2="128.916" y2="76.2345" gradientUnits="userSpaceOnUse">
<stop stop-color="#DFA554"/>
<stop offset="0.24" stop-color="#F6BF2B"/>
<stop offset="0.4" stop-color="#FFCA1B"/>
<stop offset="0.605" stop-color="#FFF5DD"/>
<stop offset="0.67" stop-color="#F6BF2B"/>
<stop offset="1" stop-color="#E0A25C"/>
</linearGradient>
<linearGradient id="paint1_linear_81_94" x1="128.573" y1="-17.3497" x2="128.573" y2="77.1571" gradientUnits="userSpaceOnUse">
<stop stop-color="#DFA554"/>
<stop offset="0.24" stop-color="#F6BF2B"/>
<stop offset="0.4" stop-color="#FFCA1B"/>
<stop offset="0.605" stop-color="#FFF5DD"/>
<stop offset="0.67" stop-color="#F6BF2B"/>
<stop offset="1" stop-color="#E0A25C"/>
</linearGradient>
<linearGradient id="paint2_linear_81_94" x1="127.822" y1="-17.3497" x2="127.822" y2="77.1571" gradientUnits="userSpaceOnUse">
<stop stop-color="#DFA554"/>
<stop offset="0.24" stop-color="#F6BF2B"/>
<stop offset="0.4" stop-color="#FFCA1B"/>
<stop offset="0.605" stop-color="#FFF5DD"/>
<stop offset="0.67" stop-color="#F6BF2B"/>
<stop offset="1" stop-color="#E0A25C"/>
</linearGradient>
<linearGradient id="paint3_linear_81_94" x1="128.372" y1="-19.3973" x2="128.372" y2="75.1095" gradientUnits="userSpaceOnUse">
<stop stop-color="#DFA554"/>
<stop offset="0.24" stop-color="#F6BF2B"/>
<stop offset="0.4" stop-color="#FFCA1B"/>
<stop offset="0.605" stop-color="#FFF5DD"/>
<stop offset="0.67" stop-color="#F6BF2B"/>
<stop offset="1" stop-color="#E0A25C"/>
</linearGradient>
<linearGradient id="paint4_linear_81_94" x1="133.114" y1="-16.6476" x2="133.114" y2="77.8592" gradientUnits="userSpaceOnUse">
<stop stop-color="#DFA554"/>
<stop offset="0.24" stop-color="#F6BF2B"/>
<stop offset="0.4" stop-color="#FFCA1B"/>
<stop offset="0.605" stop-color="#FFF5DD"/>
<stop offset="0.67" stop-color="#F6BF2B"/>
<stop offset="1" stop-color="#E0A25C"/>
</linearGradient>
<linearGradient id="paint5_linear_81_94" x1="131.017" y1="-18.6162" x2="131.017" y2="75.8906" gradientUnits="userSpaceOnUse">
<stop stop-color="#DFA554"/>
<stop offset="0.24" stop-color="#F6BF2B"/>
<stop offset="0.4" stop-color="#FFCA1B"/>
<stop offset="0.605" stop-color="#FFF5DD"/>
<stop offset="0.67" stop-color="#F6BF2B"/>
<stop offset="1" stop-color="#E0A25C"/>
</linearGradient>
<linearGradient id="paint6_linear_81_94" x1="129.415" y1="-18.6148" x2="129.415" y2="75.892" gradientUnits="userSpaceOnUse">
<stop stop-color="#DFA554"/>
<stop offset="0.24" stop-color="#F6BF2B"/>
<stop offset="0.4" stop-color="#FFCA1B"/>
<stop offset="0.605" stop-color="#FFF5DD"/>
<stop offset="0.67" stop-color="#F6BF2B"/>
<stop offset="1" stop-color="#E0A25C"/>
</linearGradient>
<linearGradient id="paint7_linear_81_94" x1="128.656" y1="-18.6148" x2="128.656" y2="75.892" gradientUnits="userSpaceOnUse">
<stop stop-color="#DFA554"/>
<stop offset="0.24" stop-color="#F6BF2B"/>
<stop offset="0.4" stop-color="#FFCA1B"/>
<stop offset="0.605" stop-color="#FFF5DD"/>
<stop offset="0.67" stop-color="#F6BF2B"/>
<stop offset="1" stop-color="#E0A25C"/>
</linearGradient>
</defs>
</svg>
